<mxfile host="app.diagrams.net" modified="2024-05-27T13:06:04.003Z" agent="Mozilla/5.0 (Windows NT 10.0; Win64; x64) AppleWebKit/537.36 (KHTML, like Gecko) Chrome/124.0.0.0 Safari/537.36" version="24.4.9" etag="jWbKn9g_QVrmlfcpEgFW" type="github">
  <diagram name="PÃ¡gina-1" id="LXf3qkZagW0aJWkrybWr">
    <mxGraphModel>
      <root>
        <mxCell id="0" />
        <mxCell id="1" parent="0" />
      </root>
    </mxGraphModel>
  </diagram>
</mxfile>
